# xmcd CD database file
#
# Track frame offsets:
#	188
#	12263
#	33488
#	69413
#	89063
#	119213
#	140738
#	152063
#	165863
#
# Disc length: 2634 seconds
#
# Revision: 0
# Processed by: cddbd v1.5.2PL0 Copyright (c) Steve Scherf et al.
# Submitted via: CDex 1.51
#
DISCID=790a4809
DTITLE=Jose Ramon Etxeberría - Horizonte
DYEAR=1993
DGENRE=New Age
TTITLE0=Atalaya
TTITLE1=Olas
TTITLE2=Horizonte
TTITLE3=Biarritz
TTITLE4=Sirenas
TTITLE5=Rostro de Fuego
TTITLE6=Noche Cálida
TTITLE7=Mañana en San Juan
TTITLE8=Horizonte II
EXTD=YEAR: 1993
EXTT0=
EXTT1=
EXTT2=
EXTT3=
EXTT4=
EXTT5=
EXTT6=
EXTT7=
EXTT8=
PLAYORDER=
